<?xml version='1.0' encoding='utf-8'?>
<svg xmlns="http://www.w3.org/2000/svg" width="214.39mm" height="196.51mm" clip-rule="evenodd" fill-rule="evenodd" image-rendering="optimizeQuality" shape-rendering="geometricPrecision" text-rendering="geometricPrecision" version="1.1" viewBox="0 0 21439 19651">
 <defs>
  <style type="text/css">
   
    .str0 {stroke:#FEFEFE;stroke-width:20}
    .fil2 {fill:none}
    .fil1 {fill:#FEFEFE}
    .fil0 {fill:black}
   
  </style>
 </defs>
   <path class="fil0" d="m4401 4778c-309 585-391 1151-478 1813-24 182-26 338-63 510-45 215-106 455-198 660-248 553-379 655-60 1289 48 94 83 168 131 263 106 208 264 410 422 580 132 142 342 401 497 505-556 827-734 1364-734 2470 0 302 83 575 187 833 34 86 62 166 99 241 75 151 151 303 234 446 21 38 268 412 268 413 0 324-609 1037-609 1771 0 422 199 703 432 1018 151 203 427 408 445 432l-174 220c-61 81-112 164-166 245-38 56-384 659-125 680 2 96 23 100 105 104 157 9 15 139 426-91 107-60 193-109 290-176 253-176 490-345 723-547 153-132 308-58 504-87 146-23 307-3 458-7 92-3 110-19 214-19 621-1 720-84 1061-98 487-18 1959 402 2375 402-43 185-448 805-142 894l54 18c68 37 1 42 107 54 33 4 47-3 83 6 65 16 22 31 59 31 152 0 501-251 620-330 185-122 366-271 521-427 82-82 151-150 233-232 72-72 162-198 242-241 114-60 197-96 303-163 284-178 529-451 694-738 118-207 217-397 328-620 182-360 441-1110 352-1527 123-10 1063-377 1287-450 73-24 137-24 163-87 24-57-65-188-84-237-80-203-266-576-310-765 176-93 1378-557 1378-608 0-155-400-1332-465-1611 81-7 128-39 203-65 78-27 125-42 198-71 81-31 1174-396 1174-437 0-155-105-362-147-515l-396-1304c-15-45-26-74-41-120-16-50-24-99-42-137 46-22 210-62 279-79 665-166 1323-393 1969-608l1364-460c234-77 601-193 790-320-23-285-553-1360-734-1718l-805-1647c-51-103-210-387-233-483-115 0-210 56-303 108l-1194 667-3968 2564c-244 163-178 114 111 548l1657 2495c56 84 254 355 261 437-119 9-1186 444-1381 516-291 108-251-15 144 972 59 149 113 281 174 434 38 96 161 358 168 440-85 20-928 470-1020 519 14 159 448 899 501 1127-166 80-581 305-733 340l-108-626c-100-605-279-1185-413-1788l-138-596c-152-605-260-1215-364-1837-102-614-215-1288-281-1920l-71-663c-129-1179-156-1249-541-2216-17-44-33-101-53-143 271 0 1518-413 1715-486l773-337c304-153 596-315 876-502 55-36 107-64 165-103 744-499 1052-755 1647-1395 75-81 403-407 338-472-44-44-891 39-1021 38-167 0-865 37-1011 64-649 119-1198 260-1778 441-863 269-1968 849-2742 1392-255 179-61 166-729-95-195-76-381-137-592-195-1167-326-2507-263-3634 113l-474 171c-51 23-115 55-173 59-23-86-124-162-183-228-32-36-31-44-63-80-344-387-743-824-1137-1154-311-260-630-522-961-757l-1049-670c-242-143-505-269-766-378-298-124-980-455-1263-455-111 0-17 125 5 174l281 578c125 252 286 491 430 733 70 117 154 230 232 341l923 1081c3 2 7 6 9 8 208 199 446 443 671 618l230 200c582 457 745 565 1370 939 52 31 134 92 197 106z"/>
    <path class="fil1" d="m9657 6292c-196 46-327 156-399 304-331 684 319 1235 845 1077 603-181 636-982 147-1283-148-92-397-144-593-98z"/>
    <path class="fil1" d="m5111 6219c-681 103-720 1355 39 1329 360-12 496-334 510-693 15-376-149-697-549-636z"/>
   <path class="fil2 str0" d="m6164 8531c88 84 165 181 264 251 26 18 64 10 93 0 153-52 296-132 449-185 50-17 107-43 158-26 229 76 433 214 660 297 37 13 82 1 119-13 131-51 255-119 383-179"/>
   <path class="fil1" d="m6979 7928c-134-39-193-106-232-180 158-5 316-10 474-16-81 65-162 131-242 196z"/>
</svg>